<svg xmlns="http://www.w3.org/2000/svg" viewBox="5 -215 979 487" width="979" height="487" role="img" aria-label="Bar Martiri"><title>Bar Martiri</title><path fill="#151515" d="M292.95 -205.8 308.25 -214.5H359.1Q382.65 -214.5 397.35 -208.2Q412.05 -201.9 418.8 -190.88Q425.55 -179.85 425.55 -165.6Q425.55 -143.55 409.43 -130.57Q393.3 -117.6 368.4 -115.05L373.05 -117.45Q405.45 -114.9 423.68 -99.07Q441.9 -83.25 441.9 -60.15Q441.9 -43.5 433.27 -29.85Q424.65 -16.2 405.38 -8.1Q386.1 0 354 0H308.4L296.85 -8.7H349.2Q366.75 -8.7 379.35 -14.17Q391.95 -19.65 398.78 -31.05Q405.6 -42.45 405.6 -60.3Q405.6 -74.85 400.05 -86.1Q394.5 -97.35 382.95 -103.65Q371.4 -109.95 353.25 -109.95H296.7L292.95 -118.5H351.6Q369.75 -118.5 380.55 -129.52Q391.35 -140.55 391.35 -162.9Q391.35 -175.8 386.03 -185.47Q380.7 -195.15 369.3 -200.47Q357.9 -205.8 339.45 -205.8ZM261.3 0V-4.5L287.7 -11.1V-203.55L261.3 -210V-214.5H324V0ZM555 -99.45 556.35 -92.85Q536.7 -86.55 524.48 -80.85Q512.25 -75.15 505.88 -69.45Q499.5 -63.75 497.1 -57.3Q494.7 -50.85 494.7 -43.05Q494.7 -30.3 501.67 -24Q508.65 -17.7 519 -17.7Q526.95 -17.7 532.95 -20.85Q538.95 -24 542.33 -30.15Q545.7 -36.3 545.7 -45.3V-114.6Q545.7 -129.45 538.35 -137.18Q531 -144.9 515.85 -144.9Q508.65 -144.9 501.52 -143.85Q494.4 -142.8 490.35 -140.85L498 -147.45Q497.4 -141 496.35 -134.93Q495.3 -128.85 493.95 -124.12Q492.6 -119.4 490.65 -117Q488.55 -114.45 484.43 -112.95Q480.3 -111.45 475.8 -111.45Q469.95 -111.45 466.65 -113.7Q463.35 -115.95 463.35 -120.6Q463.35 -127.05 469.5 -133.42Q475.65 -139.8 485.55 -145.12Q495.45 -150.45 507.08 -153.6Q518.7 -156.75 529.5 -156.75Q547.05 -156.75 557.62 -151.65Q568.2 -146.55 573 -137.32Q577.8 -128.1 577.8 -115.5V-28.2Q577.8 -23.4 579.3 -20.55Q580.8 -17.7 583.58 -16.35Q586.35 -15 589.8 -15Q594.75 -15 599.48 -16.5Q604.2 -18 609.3 -21.45V-16.8Q598.2 -4.05 589.35 -0.45Q580.5 3.15 570.75 3.15Q561.45 3.15 555.98 -0.9Q550.5 -4.95 548.1 -12.67Q545.7 -20.4 545.25 -31.65L546 -31.35Q543.45 -21.15 537.67 -13.35Q531.9 -5.55 523.8 -1.2Q515.7 3.15 505.8 3.15Q486.6 3.15 474.3 -6.9Q462 -16.95 462 -35.7Q462 -45.6 465.38 -53.1Q468.75 -60.6 478.35 -67.5Q487.95 -74.4 506.4 -81.97Q524.85 -89.55 555 -99.45ZM712.05 -156.45Q718.95 -156.45 723.08 -152.4Q727.2 -148.35 727.2 -141.45Q727.2 -132.9 721.88 -127.5Q716.55 -122.1 708.6 -122.1Q704.7 -122.1 701.1 -123Q697.5 -123.9 693.67 -124.8Q689.85 -125.7 684.9 -125.7Q680.55 -125.7 676.72 -124.2Q672.9 -122.7 669.3 -120.15Q665.7 -117.6 661.8 -113.85L661.65 -120.6Q673.2 -132.9 681.08 -140.1Q688.95 -147.3 694.42 -150.82Q699.9 -154.35 703.95 -155.4Q708 -156.45 712.05 -156.45ZM664.2 -128.55V-8.7L687.6 -4.2V0H611.55V-4.2L631.95 -8.7V-126.3Q630 -127.65 627.3 -129.53Q624.6 -131.4 620.62 -134.1Q616.65 -136.8 611.1 -140.7V-143.7L663.15 -158.25H664.2ZM280.65 257.22 307.35 263.82V268.32H216.6V263.82L243.45 257.52L229.35 70.17L231.45 70.47L148.8 271.02H138.6L51 74.97L53.1 74.52L41.4 257.67L70.5 263.82V268.32H5.1V263.82L31.5 257.67L43.65 68.52L16.2 58.32V53.82H80.85L160.35 232.17H154.95L227.85 53.82H294.6V58.32L265.2 64.77ZM411 168.87 412.35 175.47Q392.7 181.77 380.48 187.47Q368.25 193.17 361.88 198.87Q355.5 204.57 353.1 211.02Q350.7 217.47 350.7 225.27Q350.7 238.02 357.67 244.32Q364.65 250.62 375 250.62Q382.95 250.62 388.95 247.47Q394.95 244.32 398.32 238.17Q401.7 232.02 401.7 223.02V153.72Q401.7 138.87 394.35 131.14Q387 123.42 371.85 123.42Q364.65 123.42 357.52 124.47Q350.4 125.52 346.35 127.47L354 120.87Q353.4 127.32 352.35 133.39Q351.3 139.47 349.95 144.19Q348.6 148.92 346.65 151.32Q344.55 153.87 340.43 155.37Q336.3 156.87 331.8 156.87Q325.95 156.87 322.65 154.62Q319.35 152.37 319.35 147.72Q319.35 141.27 325.5 134.89Q331.65 128.52 341.55 123.2Q351.45 117.87 363.07 114.72Q374.7 111.57 385.5 111.57Q403.05 111.57 413.62 116.67Q424.2 121.77 429 131Q433.8 140.22 433.8 152.82V240.12Q433.8 244.92 435.3 247.77Q436.8 250.62 439.58 251.97Q442.35 253.32 445.8 253.32Q450.75 253.32 455.48 251.82Q460.2 250.32 465.3 246.87V251.52Q454.2 264.27 445.35 267.87Q436.5 271.47 426.75 271.47Q417.45 271.47 411.98 267.42Q406.5 263.37 404.1 255.64Q401.7 247.92 401.25 236.67L402 236.97Q399.45 247.17 393.67 254.97Q387.9 262.77 379.8 267.12Q371.7 271.47 361.8 271.47Q342.6 271.47 330.3 261.42Q318 251.37 318 232.62Q318 222.72 321.38 215.22Q324.75 207.72 334.35 200.82Q343.95 193.92 362.4 186.34Q380.85 178.77 411 168.87ZM568.05 111.87Q574.95 111.87 579.08 115.92Q583.2 119.97 583.2 126.87Q583.2 135.42 577.88 140.82Q572.55 146.22 564.6 146.22Q560.7 146.22 557.1 145.32Q553.5 144.42 549.67 143.52Q545.85 142.62 540.9 142.62Q536.55 142.62 532.72 144.12Q528.9 145.62 525.3 148.17Q521.7 150.72 517.8 154.47L517.65 147.72Q529.2 135.42 537.08 128.22Q544.95 121.02 550.42 117.5Q555.9 113.97 559.95 112.92Q564 111.87 568.05 111.87ZM520.2 139.77V259.62L543.6 264.12V268.32H467.55V264.12L487.95 259.62V142.02Q486 140.67 483.3 138.8Q480.6 136.92 476.62 134.22Q472.65 131.52 467.1 127.62V124.62L519.15 110.07H520.2ZM641.55 227.82Q641.55 238.62 648.38 244.09Q655.2 249.57 666.75 249.57Q673.35 249.57 680.7 248.44Q688.05 247.32 697.8 244.47V249.12Q683.4 257.97 674.33 262.84Q665.25 267.72 658.65 269.67Q652.05 271.62 644.85 271.62Q635.4 271.62 627.38 267.57Q619.35 263.52 614.4 254.59Q609.45 245.67 609.45 231.42V135.72L589.65 122.82V120.42Q591.15 119.37 594.6 117.27Q598.05 115.17 602.92 112.17Q607.8 109.17 613.72 105.42Q619.65 101.67 626.33 97.47Q633 93.27 639.9 88.92H641.55V119.82ZM630.3 132.27V114.72H693.3L690.75 132.27ZM737.4 89.52Q727.5 89.52 721.72 82.77Q715.95 76.02 715.95 67.62Q715.95 59.37 721.72 53.37Q727.5 47.37 737.4 47.37Q747.45 47.37 752.92 53.37Q758.4 59.37 758.4 67.62Q758.4 76.02 752.92 82.77Q747.45 89.52 737.4 89.52ZM755.7 110.07V139.77V259.62L775.95 264.12V268.32H703.2V264.12L723.6 259.62V142.02Q721.95 140.82 718.8 138.64Q715.65 136.47 711.52 133.62Q707.4 130.77 702.75 127.62V124.62L754.8 110.07ZM887.25 111.87Q894.15 111.87 898.27 115.92Q902.4 119.97 902.4 126.87Q902.4 135.42 897.07 140.82Q891.75 146.22 883.8 146.22Q879.9 146.22 876.3 145.32Q872.7 144.42 868.88 143.52Q865.05 142.62 860.1 142.62Q855.75 142.62 851.92 144.12Q848.1 145.62 844.5 148.17Q840.9 150.72 837 154.47L836.85 147.72Q848.4 135.42 856.27 128.22Q864.15 121.02 869.62 117.5Q875.1 113.97 879.15 112.92Q883.2 111.87 887.25 111.87ZM839.4 139.77V259.62L862.8 264.12V268.32H786.75V264.12L807.15 259.62V142.02Q805.2 140.67 802.5 138.8Q799.8 136.92 795.82 134.22Q791.85 131.52 786.3 127.62V124.62L838.35 110.07H839.4ZM963.15 110.07V139.77V259.62L983.4 264.12V268.32H910.65V264.12L931.05 259.62V142.02Q929.4 140.82 926.25 138.64Q923.1 136.47 918.98 133.62Q914.85 130.77 910.2 127.62V124.62L962.25 110.07Z"/><path fill="#E55C87" d="M944.85 89.52Q934.95 89.52 929.17 82.77Q923.4 76.02 923.4 67.62Q923.4 59.37 929.17 53.37Q934.95 47.37 944.85 47.37Q954.9 47.37 960.38 53.37Q965.85 59.37 965.85 67.62Q965.85 76.02 960.38 82.77Q954.9 89.52 944.85 89.52Z"/></svg>
